<svg width="76" height="33" viewBox="0 0 76 33" fill="none" xmlns="http://www.w3.org/2000/svg">
<g clip-path="url(#clip0_3_14)">
<path d="M0.0759277 23.364V0H2.42948V23.364H0.0759277ZM3.60625 23.364V0H5.9598V23.364H3.60625ZM7.13657 23.364V0H11.8437V23.364H7.13657Z" fill="#2F2F2F"/>
<path d="M13.0234 23.364V0H14.2002V23.364H13.0234ZM16.5538 23.364V0H21.2609V23.364H16.5538ZM23.6144 23.364V0H24.7912V23.364H23.6144Z" fill="#2F2F2F"/>
<path d="M25.9712 23.364V0H27.148V23.364H25.9712ZM29.5015 23.364V0H30.6783V23.364H29.5015ZM33.0318 23.364V0H37.7389V23.364H33.0318Z" fill="#2F2F2F"/>
<path d="M38.9187 23.364V0H40.0955V23.364H38.9187ZM42.449 23.364V0H43.6258V23.364H42.449ZM44.8026 23.364V0H47.1561V23.364H44.8026Z" fill="#2F2F2F"/>
<path d="M51.8662 23.364V0H53.043V23.364H51.8662ZM55.3965 23.364V0H56.5733V23.364H55.3965ZM58.9268 23.364V0H63.634V23.364H58.9268Z" fill="#2F2F2F"/>
<path d="M64.814 23.364V0H65.9907V23.364H64.814ZM70.6978 23.364V0H73.0514V23.364H70.6978ZM74.2282 23.364V0H75.4049V23.364H74.2282Z" fill="#2F2F2F"/>
<path d="M0 26.439H0.824167L2.47251 29.2398H2.54216L4.19049 26.439H5.01466L2.86718 29.9663V32.439H2.14748V29.9663L0 26.439Z" fill="#2F2F2F"/>
<path d="M19.0802 26.439H19.7999V30.4116C19.7999 30.8218 19.7041 31.1881 19.5126 31.5103C19.323 31.8306 19.055 32.0835 18.7088 32.269C18.3625 32.4527 17.9561 32.5444 17.4899 32.5444C17.0236 32.5444 16.6174 32.4527 16.2711 32.269C15.9247 32.0835 15.6559 31.8306 15.4643 31.5103C15.2747 31.1881 15.1799 30.8218 15.1799 30.4116V26.439H15.8996V30.3531C15.8996 30.646 15.9635 30.9068 16.0911 31.1353C16.2188 31.3619 16.4007 31.5406 16.6368 31.6714C16.8747 31.8004 17.1591 31.8648 17.4899 31.8648C17.8207 31.8648 18.1051 31.8004 18.3431 31.6714C18.5811 31.5406 18.763 31.3619 18.8887 31.1353C19.0164 30.9068 19.0802 30.646 19.0802 30.3531V26.439Z" fill="#2F2F2F"/>
<path d="M30.4714 32.439V26.439H32.4796C32.944 26.439 33.325 26.519 33.623 26.6793C33.9209 26.8374 34.1415 27.0552 34.2847 27.3326C34.4279 27.6099 34.4994 27.9253 34.4994 28.2789C34.4994 28.6324 34.4279 28.9459 34.2847 29.2193C34.1415 29.4927 33.9219 29.7076 33.6259 29.8638C33.3299 30.0181 32.9517 30.0953 32.4912 30.0953H30.8661V29.439H32.468C32.7853 29.439 33.0406 29.3921 33.2342 29.2984C33.4296 29.2046 33.5708 29.0718 33.6578 28.8999C33.7468 28.7261 33.7913 28.5191 33.7913 28.2789C33.7913 28.0386 33.7468 27.8287 33.6578 27.649C33.5688 27.4693 33.4266 27.3306 33.2312 27.2329C33.0358 27.1333 32.7776 27.0835 32.4564 27.0835H31.1911V32.439H30.4714ZM33.269 29.7437L34.7316 32.439H33.8958L32.4564 29.7437H33.269Z" fill="#2F2F2F"/>
<path d="M45.1769 32.439H44.4224L46.6046 26.439H47.3475L49.5299 32.439H48.7754L46.9993 27.3882H46.9529L45.1769 32.439ZM45.4555 30.0953H48.4968V30.7397H45.4555V30.0953Z" fill="#2F2F2F"/>
<path d="M59.6902 32.439V26.439H61.6984C62.1627 26.439 62.5438 26.519 62.8417 26.6793C63.1397 26.8374 63.3602 27.0552 63.5034 27.3326C63.6466 27.6099 63.7182 27.9253 63.7182 28.2789C63.7182 28.6324 63.6466 28.9459 63.5034 29.2193C63.3602 29.4927 63.1407 29.7076 62.8447 29.8638C62.5487 30.0181 62.1704 30.0953 61.71 30.0953H60.0848V29.439H61.6868C62.004 29.439 62.2594 29.3921 62.4529 29.2984C62.6483 29.2046 62.7895 29.0718 62.8765 28.8999C62.9655 28.7261 63.0101 28.5191 63.0101 28.2789C63.0101 28.0386 62.9655 27.8287 62.8765 27.649C62.7876 27.4693 62.6454 27.3306 62.45 27.2329C62.2546 27.1333 61.9963 27.0835 61.6752 27.0835H60.4099V32.439H59.6902ZM62.4877 29.7437L63.9504 32.439H63.1145L61.6752 29.7437H62.4877Z" fill="#2F2F2F"/>
<path d="M75.3306 26.439V32.439H74.6108V26.439H75.3306Z" fill="#2F2F2F"/>
</g>
<defs>
<clipPath id="clip0_3_14">
<rect width="76" height="33" fill="white"/>
</clipPath>
</defs>
</svg>
